<?xml version="1.0" encoding="UTF-8"?>
<!DOCTYPE svg PUBLIC "-//W3C//DTD SVG 1.1//EN" "http://www.w3.org/Graphics/SVG/1.1/DTD/svg11.dtd">
<svg version="1.1" xmlns="http://www.w3.org/2000/svg" xmlns:xlink="http://www.w3.org/1999/xlink" x="0" y="0" width="58.088" height="58.088" viewBox="0, 0, 58.088, 58.088">
    <style>
      :root {
        --color-flower-fill: hsl(232, 47%, 60%);
        --color-flower-green: #4E985F;
        --color-flower-outline: hsl(215, 52%, 5%);
      }
      @media (prefers-color-scheme: dark) {
        :root{
            --color-flower-fill: hsl(326, 35%, 50%);
	        	--color-flower-green: hsl(134, 32%, 35%);
		        --color-flower-outline: hsl(215, 52%, 10%);
          }
      }
    </style>
    <path d="M19.54 12.32l.11.98.01.05.16 1.43.33 2.72c.4 3.41.83 6.82 1.25 10.23.1.88.21 1.75.33 2.6.05.49.11.95.18 1.43.04.47.1.95.17 1.41l.03.25c.02.07.01.13.04.2a16.91 16.91 0 00.15 1.27c.02.17.04.35.08.52a347.4 347.4 0 00.93 7.2l.56 4.2.14.99.07.58c.05.26.08.52.12.8.15 1.13.3 2.28.47 3.44 0 .04 0 .08.02.13l.61 4.4 3.51.14-.75-4.9-.02-.16a595.82 595.82 0 01-.95-6.29c-.01-.03-.02-.06 0-.09a19.8 19.8 0 01-.25-1.6c-.16-1.03-.33-2.07-.47-3.1l-.15-1-.12-.82-.65-4.4-.25-1.73-.57-4.08c-.49-3.35-.96-6.71-1.43-10.07-.22-1.49-.42-2.99-.62-4.49v-.01-.02l-.04-.32c-.06-.32-.1-.65-.14-.98l-.33-2.45a107.72 107.72 0 01-.48-3.58" fill="var(--color-flower-green)"/>
    <path d="M20.15 13.8c.06.53.13 1 .17 1.47l.33 2.73c.4 3.41.83 6.82 1.25 10.23.1.88.21 1.75.33 2.6.05.49.11.95.18 1.43.04.47.1.95.17 1.41l.03.25c.02.07.01.13.04.2a16.91 16.91 0 00.15 1.27c.02.17.04.35.08.52a347.4 347.4 0 00.93 7.2l.56 4.2.14.99.07.58c.05.26.08.52.12.8.15 1.13.3 2.28.47 3.44a3604.2 3604.2 0 00.66 4.7s3.53.05 3.52.2c-.02.16-.53-3.42-.79-5.13l-.02-.16a595.82 595.82 0 01-.95-6.29c-.01-.03-.02-.06 0-.09a19.8 19.8 0 01-.25-1.6c-.16-1.03-.33-2.07-.47-3.1l-.15-1h0l-.12-.82-.65-4.4-.25-1.73-.57-4.08c-.49-3.35-.96-6.71-1.43-10.07-.22-1.49-.42-2.99-.62-4.49v-.01-.02l-.04-.32c-.06-.32-.1-.65-.14-.98l-.33-2.45a107.72 107.72 0 01-.5-3.68c-.04-.22-.06-.45-.09-.69" fill-opacity="0" stroke="var(--color-flower-outline)"/>
    <path d="M19.76 31.93l-8.95-5.24c-1.14-.67-2.33-1.35-3.66-1.5-1.33-.14-2.86.4-3.47 1.6-.54 1.09-.2 2.42.57 3.32.76.9 1.85 1.45 2.94 1.92a35.84 35.84 0 0016.65 2.8l-4.08-2.9" fill="var(--color-flower-fill)"/>
    <path d="M20.16 31.26L11.2 26c-2.18-1.27-4.96-2.49-7.25-.71-2.17 1.68-1.33 4.67.6 6.15 1.15.89 2.56 1.42 3.9 1.93 1.5.56 3.02 1.02 4.57 1.38 3.54.81 7.2 1.09 10.82.85.8-.05 1.03-1 .4-1.46l-4.08-2.9c-.82-.57-1.6.78-.79 1.36l4.07 2.9.4-1.46a35.96 35.96 0 01-14.8-2.11c-1.4-.53-3.12-1.1-4.13-2.26-1.11-1.28-.85-3.04.83-3.58 1.54-.5 3.08.34 4.39 1.1 3.1 1.78 6.16 3.6 9.24 5.4.87.52 1.66-.83.79-1.34" fill="var(--color-flower-outline)"/>
    <path d="M54.3 27.17c-.81-.54-1.86-.55-2.83-.43-2.87.36-5.55 1.7-7.81 3.49-2.27 1.79-4.17 4-5.93 6.29a88.69 88.69 0 00-10 16.34l2.17-3.08a123.64 123.64 0 0116.54-10.22c1.9-.98 3.86-1.92 5.54-3.26 1.68-1.33 3.1-3.13 3.53-5.24.28-1.4 0-3.1-1.2-3.9" fill="var(--color-flower-fill)"/>
    <path d="M54.7 26.5c-2.57-1.5-6.28-.05-8.65 1.22-3.04 1.63-5.52 4.1-7.69 6.75a87.52 87.52 0 00-11.3 18c-.43.9.77 1.61 1.35.78.68-.96 1.38-2.27 2.16-3.04.46-.45 1.34-.93 1.92-1.33l2.08-1.43a121.87 121.87 0 0113.17-7.68c2.68-1.37 5.38-2.88 7.14-5.4 1.62-2.3 2.4-5.96-.18-7.88-.8-.6-1.59.76-.79 1.35 1.1.82 1.04 2.43.7 3.61a8.27 8.27 0 01-2.26 3.49c-2.13 2.07-4.99 3.24-7.59 4.62a124.3 124.3 0 00-13.8 8.49c-.54.39-1.22.76-1.68 1.25-.84.94-1.5 2.14-2.22 3.17l1.35.78A88.44 88.44 0 0138.6 36.66c1.93-2.47 4.05-4.88 6.66-6.64a15.89 15.89 0 014.14-2.04c1.38-.42 3.19-.9 4.51-.14.87.5 1.66-.84.79-1.35" fill="var(--color-flower-outline)"/>
    <path d="M45.33 1.67a4.8 4.8 0 00-4.27.32c-1.3.72-2.32 1.85-3.23 3.03-5.28 6.9-7.33 15.66-9.24 24.14l1.44-5.7c2.7-4.84 8.12-7.32 12.66-10.5 1.93-1.34 3.82-2.97 4.63-5.18.81-2.2.14-5.11-1.99-6.12" fill="var(--color-flower-fill)"/>
    <path d="M45.54.91c-2.8-1.17-5.62.48-7.45 2.57-2.01 2.28-3.6 4.99-4.87 7.74-2.62 5.63-4.03 11.7-5.39 17.73-.22.98 1.26 1.4 1.5.41l1.1-4.27c.12-.5.2-1.05.42-1.5a12.65 12.65 0 012.95-3.52c2.32-2.1 5.07-3.65 7.68-5.35 2.49-1.62 5.18-3.43 6.4-6.26 1.13-2.59.52-6.1-2.15-7.47-.9-.46-1.68.89-.8 1.35 2.66 1.37 2.21 4.87.7 6.91-1.73 2.37-4.54 3.88-6.97 5.42-3.66 2.33-8.53 5.2-9.67 9.69l-1.16 4.59 1.5.41c1.24-5.44 2.48-10.95 4.68-16.1a36.73 36.73 0 014-7.19c1.62-2.21 4.09-4.92 7.12-3.65.92.39 1.33-1.13.41-1.5" fill="var(--color-flower-outline)"/>
    <path d="M13.17 14.91c-1.04-1.08-2.3-2.17-3.8-2.16-1.58.02-2.92 1.35-3.36 2.86-.45 1.51-.15 3.14.39 4.63a15.71 15.71 0 0014.98 10.09h.96a39.7 39.7 0 00-9.17-15.42" fill="var(--color-flower-fill)"/>
    <path d="M13.72 14.36c-1.73-1.78-4.2-3.31-6.56-1.64C4.8 14.38 4.69 17.46 5.49 20c1.5 4.71 5.38 8.43 9.97 10.14 2.25.84 4.5.97 6.88.97.48 0 .9-.5.75-.99a41.06 41.06 0 00-9.37-15.76c-.7-.73-1.8.37-1.1 1.1a39.33 39.33 0 018.96 15.08l.76-.99c-2.15 0-4.18-.1-6.22-.83a15.35 15.35 0 01-6.32-4.28c-1.77-2-3.38-4.86-3.22-7.6.08-1.36.86-2.87 2.27-3.23 1.51-.39 2.8.87 3.77 1.85.7.72 1.8-.38 1.1-1.1" fill="var(--color-flower-outline)"/>
    <path d="M45.93 22.95c-.97-.27-2.03.1-2.84.7a10 10 0 00-2 2.27c-4.35 6.07-8.71 12.16-12.35 18.69l-1.24 2.94c2.28-3.99 6.38-6.53 10.25-9.01 3.87-2.48 7.87-5.29 9.72-9.5.48-1.1.8-2.3.6-3.47-.19-1.18-.99-2.31-2.14-2.62" fill="var(--color-flower-fill)"/>
    <path d="M46.14 22.2c-3.18-.66-5 2.3-6.58 4.52a341.17 341.17 0 00-5.69 8.13 135.51 135.51 0 00-5.26 8.4c-.71 1.25-1.23 2.58-1.79 3.9-.38.9.82 1.7 1.35.8 3.23-5.5 9.5-7.98 14.33-11.77 2.32-1.83 4.43-4.02 5.64-6.75 1.14-2.56 1.16-6.19-2-7.23-.96-.32-1.36 1.19-.41 1.5 1.58.53 1.8 2.37 1.46 3.78a10.9 10.9 0 01-1.92 3.78c-1.66 2.23-3.94 3.96-6.23 5.5-4.45 3-9.41 5.62-12.22 10.4l1.35.79c.41-.98.79-2 1.25-2.95 1.3-2.73 3.12-5.31 4.78-7.83 1.68-2.56 3.44-5.07 5.21-7.57l2.55-3.56c.88-1.2 2.1-2.68 3.77-2.34.98.2 1.4-1.3.41-1.5" fill="var(--color-flower-outline)"/>
    <path d="M24.72 44.16c-.95-2.76-1.94-5.57-3.66-7.94-1.72-2.36-4.33-4.26-7.25-4.41-1.15-.06-2.42.22-3.1 1.16-.57.82-.54 1.93-.29 2.9.95 3.76 4.4 6.25 7.61 8.41l8.67 5.86-1.98-5.98" fill="var(--color-flower-fill)"/>
    <path d="M25.48 43.95c-1.12-3.23-2.3-6.55-4.58-9.17-1.89-2.17-4.78-3.96-7.76-3.74-1.39.1-2.75.68-3.35 2-.59 1.3-.28 2.82.22 4.08 1.1 2.8 3.4 4.83 5.79 6.56 3.42 2.49 7 4.77 10.51 7.13.56.38 1.36-.25 1.15-.88l-1.98-5.98c-.32-.95-1.83-.54-1.51.42l1.98 5.98 1.15-.89-8.08-5.45c-2.14-1.44-4.35-2.9-6.02-4.9-1.23-1.46-3.54-5.63-.45-6.41 2.56-.65 5.3 1.09 6.96 2.87 2.28 2.44 3.39 5.7 4.46 8.8.33.94 1.84.54 1.5-.42" fill="var(--color-flower-outline)"/>
    <path d="M16.87 43.43c-1.88.12-3.86 1.56-3.75 3.44.1 1.38 1.24 2.46 2.45 3.1 2.06 1.09 4.44 1.35 6.7 1.92 1.49.38 3 .98 4.2 1.93-.72-2.38-1.5-4.78-2.96-6.8-1.54-2.12-4.02-3.76-6.64-3.59" fill="var(--color-flower-fill)"/>
    <path d="M16.87 42.65c-1.7.15-3.46 1.03-4.2 2.63-.82 1.77.06 3.6 1.5 4.7 3.42 2.66 8.33 1.75 11.74 4.4.57.43 1.56.06 1.3-.77-.82-2.72-1.74-5.5-3.6-7.7-1.66-1.97-4.12-3.38-6.74-3.26-1 .05-1 1.61 0 1.57 5.34-.25 7.58 5.63 8.84 9.81l1.3-.76a12.4 12.4 0 00-4.65-2.16c-1.77-.44-3.6-.7-5.3-1.33-1.3-.48-3.18-1.47-3.16-3.09.02-1.46 1.68-2.36 2.97-2.47.99-.1 1-1.65 0-1.57" fill="var(--color-flower-outline)"/>
    <path d="M39.57 15.45c-.96-1.05-2.72-.66-3.91.1-3.42 2.18-5 6.3-6.1 10.2-1.96 6.8-3.22 13.8-3.74 20.85l.93 1.13a42.8 42.8 0 0013.42-29.76c.03-.88 0-1.86-.6-2.52" fill="var(--color-flower-fill)"/>
    <path d="M40.12 14.9c-1.86-1.8-4.53-.46-6.16.96-1.93 1.67-3.15 3.99-4.06 6.33a63.3 63.3 0 00-2.5 8.75c-.74 3.22-1.31 6.47-1.75 9.74-.25 1.88-.58 3.84-.6 5.74 0 .74.7 1.32 1.15 1.86.28.33.82.27 1.1 0a43.7 43.7 0 0013.6-28.9c.08-1.44.28-3.1-.66-4.33-.6-.78-1.96 0-1.35.8.87 1.12.5 2.99.38 4.31a42.54 42.54 0 01-3.14 12.71 42.07 42.07 0 01-9.93 14.3h1.1l-.93-1.12.23.55c.5-6.61 1.64-13.17 3.4-19.57.7-2.54 1.47-5.12 2.84-7.39a10.95 10.95 0 012.44-2.86c.92-.75 2.66-1.82 3.74-.78.72.7 1.82-.4 1.1-1.1" fill="var(--color-flower-outline)"/>
    <path d="M22.4 6.32c1.23-.72 2.8.18 3.7 1.27 2.62 3.1 2.88 7.5 2.79 11.55a103.91 103.91 0 01-2.67 21.02l-1.23.8a42.82 42.82 0 01-3.92-32.4c.24-.86.57-1.79 1.34-2.24" fill="var(--color-flower-fill)"/>
    <path d="M22.8 7c1.35-.67 2.7.96 3.35 1.95.7 1.08 1.15 2.28 1.45 3.53.64 2.66.56 5.45.46 8.18-.25 6.5-1.13 12.96-2.6 19.3l.36-.47-1.23.8 1.07.27A41.87 41.87 0 0121.26 11c.26-1.17.47-3.26 1.54-4 .82-.56.04-1.91-.79-1.34-1.15.79-1.52 2.04-1.87 3.33a43.73 43.73 0 004.17 32.37c.2.36.72.5 1.07.28.43-.28 1.04-.53 1.39-.91.42-.46.45-1.42.57-2.01.19-.87.36-1.74.53-2.6.6-3.18 1.05-6.38 1.36-9.6.3-3.15.52-6.35.45-9.52-.06-2.56-.38-5.17-1.47-7.52-1.03-2.24-3.44-5.19-6.2-3.82-.9.44-.11 1.8.79 1.35" fill="var(--color-flower-outline)"/>
    <path d="M35.14 16.59a72.11 72.11 0 01-6.43 20.81c-.11.23.22.44.33.2a72.33 72.33 0 006.5-21c.03-.25-.36-.26-.4-.01" fill="var(--color-flower-outline)"/>
    <path d="M37.04 16.67a70 70 0 01-5.27 20.27c-.1.23.28.34.38.11a70.13 70.13 0 005.29-20.37c.02-.25-.37-.26-.4-.01" fill="var(--color-flower-outline)"/>
    <path d="M29.08 42.95c-.04.07-.1.14-.13.21-.07-.01-.14 0-.19.08l-.56.94c-.05 0-.1 0-.14.06l-.03.04-.02.02c-.06.07-.1.16-.15.23l.35-1.44.05-.13c.02-.03 0-.05 0-.07l.15-.6c.06-.26-.28-.36-.38-.12l-.43 1.14.01-.16c.02-.11-.05-.2-.13-.23l.2-1.07c.04-.25-.34-.37-.38-.12l-.83 4.54v.02l-.22.54c-.1.24.28.35.38.12l.48-1.2v.15c-.06.16-.14.32-.19.48-.05.22.24.36.36.17l.1-.15c.06.13.27.19.34.03l1.01-2.19c.22-.37.43-.74.69-1.09.13-.22-.19-.4-.34-.2" fill="var(--color-flower-outline)"/>
    <path d="M38.09 23.04a64.76 64.76 0 01-5.54 14.3c-.12.23.21.44.33.21a65.07 65.07 0 005.58-14.4c.07-.24-.31-.36-.38-.11" fill="var(--color-flower-outline)"/>
    <path d="M52.06 30.6c-2.85 4.34-6.7 8-11.15 10.66l-.05.03c-.05-.1-.15-.15-.26-.08-.55.36-1.08.75-1.62 1.12-.51.26-1.03.5-1.55.73l.01-.02c.1-.15-.1-.39-.26-.27-.44.3-.87.6-1.29.92.17-.32.35-.64.5-.97.06-.14-.1-.27-.23-.25v-.02c.04-.15-.13-.34-.28-.23-.3.22-.58.45-.86.68.07-.21.15-.43.21-.65.06-.22-.23-.35-.35-.16l-.48.7.24-.55c.1-.2-.25-.36-.35-.16l-2.03 3.87c-.02.03 0 .05-.01.08l-.33.56c-.4.59-.77 1.18-1.15 1.78-.04.05-.02.11 0 .17l-.5.83c-.12.22.22.43.34.2.37-.61.74-1.23 1.1-1.86.09-.1.17-.22.25-.34l.49-.43c.04.12.16.18.27.1-.2.26-.41.5-.6.77-.13.2.15.39.3.25.33-.28.63-.58.93-.88.06.05.15.06.23-.02.19-.2.35-.42.52-.64a24.85 24.85 0 004.37-3.37l.73-.5a35.04 35.04 0 0013.2-11.84c.14-.22-.2-.42-.34-.21" fill="var(--color-flower-outline)"/>
    <path d="M50.64 27.24a22.98 22.98 0 01-7.7 11.36c-.2.15.07.44.27.28A23.35 23.35 0 0051 27.35c.08-.24-.3-.36-.37-.11" fill="var(--color-flower-outline)"/>
    <path d="M44.54 25.55a21.65 21.65 0 01-7.08 11.48l-.24.18-.33.2c.44-.5.86-1 1.25-1.53.12-.16-.1-.4-.26-.28-.37.27-.72.55-1.06.85l.08-.14c.6-.7 1.15-1.44 1.63-2.23a.17.17 0 00-.04-.24c2-1.82 3.77-3.9 5.2-6.2.13-.23-.2-.43-.34-.22a28.5 28.5 0 01-4.78 5.82c.04-.2-.21-.33-.35-.15l-1.43 1.96c-.22.26-.4.54-.6.82l-1.5 2.05c-.1.11-.02.22.08.26l-.93 1.18c-.14.16.08.32.24.25l-.43.44-.06.05-.02.02-.37.37c-.19.18.08.45.27.29l.66-.51a11.62 11.62 0 004.03-2.9c.06-.06.06-.15.03-.22.25-.16.49-.35.75-.5.19-.11.07-.36-.1-.36a22.23 22.23 0 004.81-6.87 21.2 21.2 0 001.27-3.76c.05-.25-.33-.36-.38-.11" fill="var(--color-flower-outline)"/>
    <path d="M25.45 51.62c-.1-.16-.18-.32-.27-.49-.4-.96-.9-1.88-1.5-2.75-.13-.2-.46-.04-.34.2l.11.2a.2.2 0 00-.07.01 51 51 0 01-.35-.59c-.13-.22-.47-.03-.35.2l.24.44c-.1-.13-.28-.05-.32.08l-.6-.6c-.16-.17-.37.02-.3.2-.06.04-.07.1-.06.18l-4.49-3.02c-.2-.15-.41.2-.2.33l4.46 3.01-.1-.04c-.16-.05-.33.13-.23.28.09.14.2.27.3.4h-.07l-.2-.16c-.1-.09-.21-.01-.26.09a7.89 7.89 0 01-4.77-2.87c-.15-.2-.44.07-.28.27a8.27 8.27 0 005.07 3c0 .02 0 .03.02.05l.04.04c-.22-.1-.41.19-.2.34l.32.2c-.07.09-.09.22.04.28l1.95 1c.3.25.6.51.94.74.18.12.4-.14.25-.3l.02-.01.55.38h.05l.14.26c.13.23.44.04.35-.2l-.12-.29.13.23c.07.14.27.11.34 0l.16.23c.14.21.49.02.35-.19l-.75-1.13" fill="var(--color-flower-outline)"/>
    <path d="M24.42 45.07c-.12-.36-.24-.72-.39-1.07l-.02-.06-.02-.05c-.05-.12-.18-.11-.27-.06l-.34-1.12c-.07-.24-.45-.15-.38.1l.13.5a.17.17 0 00-.1.18l-.62-1.34c-.11-.23-.45-.04-.35.2l.45 1.01-1.16-1.52c-.1-.14-.28-.05-.33.08a46.33 46.33 0 00-5.67-7c-.18-.18-.47.1-.29.28a45.96 45.96 0 015.82 7.23l-.47-.4c-.16-.13-.42.03-.31.24.08.15.18.3.28.45a39.73 39.73 0 01-7.28-7.27c-.16-.2-.44.07-.29.27a39.89 39.89 0 006.6 6.73c.01.03.01.06.03.08l.25.27c-.15.01-.28.2-.14.33l.04.02c.66.6 1.4 1.1 2.16 1.53l1.79 1.67.62.82.2.79c.05.16.2.17.3.1h.06l.13.35c.09.24.42.16.38-.1l-.03-.17c.06-.04.1-.1.07-.18l-.2-.59-.08-.33.4.6c.14.2.48.02.34-.19-.53-.74-.96-1.54-1.3-2.38" fill="var(--color-flower-outline)"/>
    <path d="M25.28 34.91l-.13-2.89a143.82 143.82 0 00-.01-19.51c-.02-.25-.41-.27-.4-.02.36 5.16.43 10.33.23 15.48l-.26-5.72-.16-3.6c-.01-.26-.4-.27-.4-.02l.57 12.67.03.66c-.06.9-.1 1.8-.19 2.7-.08.02-.16.1-.14.21l.02.23a67.19 67.19 0 00-.76-3.12c-.06-.2-.32-.16-.36.02a46.43 46.43 0 01-1.09-14.52c.16-1.84.43-3.67.81-5.48.05-.25-.33-.36-.38-.11a45.92 45.92 0 00-.1 18.42c-.12-.01-.27.09-.23.23l1.16 4.43a32.62 32.62 0 00-1.57-3.19c-.13-.22-.45-.04-.35.2l.88 2.03-.33-.57c-.13-.21-.47-.03-.34.2a38.75 38.75 0 012.76 5.45c.05.12.2.11.29.05v.06c.04.13.15.16.25.13l.09.63c.03.23.38.18.39-.04v-.08c.07-.25.1-.5.16-.75l-.04.44c-.03.22.34.29.38.07l.01-.05v-.04c.09-.48.14-.97.21-1.45.07 0 .13-.04.15-.12.43-1.95.6-3.94.48-5.92-.01-.26-.36-.27-.4-.02 0 .16-.03.32-.04.47a.2.2 0 00-.08.14c-.02.27-.07.54-.1.8a.17.17 0 00-.09.15l-.02.7c-.07.5-.12 1.01-.2 1.51l.04-1.63c0-.25-.39-.27-.4-.02l-.02.75c-.1 0-.2.06-.2.19l-.14 2.84-.44-3.01c.02 0 .04-.02.06-.04v.05c.01.25.4.27.4.01" fill="var(--color-flower-outline)"/>
    <path d="M20.22 29.47l-.28-.21a.2.2 0 00-.07-.25l-.4-.33.1.08c.21.14.42-.2.2-.34l-.12-.09c.02-.09-.01-.18-.13-.2l-.2-.04-.37-.28-.17-.8.07.1.3.73c.1.21.42.07.37-.14l-.37-1.67c.07-.04.1-.1.08-.2l-.62-2.26c-.07-.25-.44-.16-.39.1l.16.72c-.07-.12-.24-.1-.32-.01-.1.03-.16.14-.1.27l.02.06a.19.19 0 00-.05.11c-.09.02-.16.08-.17.16l-2.41-3.24c-.15-.2-.44.07-.29.27l2.8 3.76c-.12 0-.24.11-.2.24l.06.15c-.15-.12-.38.07-.29.25l.16.29a16.18 16.18 0 01-3.44-4.48c-.12-.23-.46-.04-.35.19a16.5 16.5 0 003.5 4.55l-.4-.32c-.07-.06-.13-.05-.18-.02a23.83 23.83 0 01-2.98-3.55c-.15-.2-.5-.02-.35.2a24.52 24.52 0 003.74 4.25l.17.2-.64-.32c-.15-.07-.4.1-.28.27.1.11.18.23.26.35.1.14.28.09.35-.01l.43.21c-.06.02-.1.08-.12.14l-.2-.1c-.19-.14-.38.13-.24.3l.06.06a15.2 15.2 0 01-4.53-3.8c-.16-.2-.45.08-.29.28a15.57 15.57 0 006.97 4.94l.34.23a.2.2 0 00.29-.18.2.2 0 00.02-.1l.34.14c.22.07.3-.2.15-.34.1-.07.15-.23.01-.32" fill="var(--color-flower-outline)"/>
    <path d="M7.04 14.99c-.04-.25-.43-.16-.38.09.49 2.8 1.59 5.49 3.2 7.82.15.21.5.02.36-.19A19.44 19.44 0 017.04 15" fill="var(--color-flower-outline)"/>
    <path d="M8.04 13.55c-.06-.25-.44-.16-.38.1a25.44 25.44 0 003.78 8.28c.15.2.5.01.35-.2-1.73-2.48-3-5.25-3.75-8.18" fill="var(--color-flower-outline)"/>
    <path d="M8.76 14.23c-.14-.2-.48-.02-.34.2l3.72 5.54c.14.21.49.03.35-.19l-3.73-5.55" fill="var(--color-flower-outline)"/>
    <path d="M9.98 28.92L4.88 27c-.2-.07-.3.16-.21.3-.24-.2-.48-.38-.7-.6-.19-.17-.47.1-.29.28l.37.31c.01.01 0 .03.02.04a20.53 20.53 0 005.1 3.68 9.87 9.87 0 01-5.37-3.66c-.15-.2-.44.07-.29.28a10.22 10.22 0 005.84 3.85c.17.04.27-.13.24-.26l.1.05c.22.1.43-.23.2-.34A20.16 20.16 0 016.9 29.2c.77.36 1.56.67 2.38.87.25.06.37-.32.12-.38-1.7-.4-3.27-1.2-4.62-2.3l5.08 1.92c.24.09.36-.29.12-.38" fill="var(--color-flower-outline)"/>
    <path d="M19.8 33.54a7.1 7.1 0 01-.77-.57c.5.36 1.03.69 1.62.91.18.07.34-.2.2-.32-.37-.33-.78-.61-1.21-.84l-.01-.03c-.3-.31-.67-.5-1.09-.55-.08-.01-.15.04-.18.11l-.12-.03c-.2-.04-.33.17-.2.33l.1.1-1.09-.58c-.22-.12-.43.21-.2.34l2.78 1.48c.35.23.7.42 1.1.59l.02.01.05.02c.2.09.35-.25.16-.35l-1.16-.62" fill="var(--color-flower-outline)"/>
    <path d="M42 12.13l-.02-.04-.01-.02c-.07-.1-.21-.17-.3-.06l-.22.22c-.35.21-.7.45-1.02.69l.67-.81c.16-.2-.07-.45-.27-.3l-1.37 1.1.38-.43c.17-.19-.07-.43-.27-.28l-.9.68.54-.62c.17-.19-.09-.47-.27-.29-.33.34-.7.63-1.05.94-.04 0-.07-.02-.11 0-.28.12-.53.28-.8.43l.87-1.16c.14-.19-.15-.42-.3-.25l-.43.46c.1-.17.23-.33.33-.5.13-.23-.2-.43-.34-.21-.37.64-.78 1.26-1.21 1.86l-.2.23.42-.95c.04-.08 0-.15-.06-.2l.16-.33v-.01l.02-.05c.1-.22-.23-.33-.35-.16-.06.07-.1.15-.15.22.02-.2.06-.4.06-.61 0-.16-.21-.28-.33-.15l-.1.11c.03-.2-.28-.28-.37-.06-.17.44-.37.86-.56 1.29-.48.7-.9 1.46-1.22 2.25l-.86 1.6c-.07.13.03.25.15.28-.04.12.07.2.18.21-.07.14-.15.26-.21.4-.12.22.22.43.33.2.2-.41.45-.8.67-1.2l.62-.76c-.02.17.18.32.32.17.3-.32.55-.68.83-1.02l.1-.1c.05-.05.12-.09.19-.14.04.1.16.18.27.12.47-.27.9-.58 1.34-.9l-.08.1c-.17.19.07.43.27.28l.5-.38.04.1-.28.3c-.17.2.07.45.27.3l.21-.17c.09.15.19.3.3.44.06.07.17.08.24.04.55-.32 1.08-.69 1.58-1.08l-.6.78c-.14.19.14.4.3.25.84-.76 1.54-1.65 2.1-2.63.04-.06.03-.13 0-.19" fill="var(--color-flower-outline)"/>
    <path d="M42.22 2.13a23.43 23.43 0 01-2.4 4.88c-.13.21.2.42.34.2C41.16 5.66 42 4 42.6 2.25c.09-.24-.29-.36-.38-.12" fill="var(--color-flower-outline)"/>
    <path d="M43.88 2.19a43.41 43.41 0 01-3.22 6.42c-.13.21.2.42.34.2a44.14 44.14 0 003.26-6.51c.1-.23-.28-.35-.38-.11" fill="var(--color-flower-outline)"/>
    <path d="M45.27 2.91a18.2 18.2 0 01-3.27 7c-.16.2.18.4.33.2 1.6-2.09 2.73-4.52 3.32-7.08.06-.25-.32-.37-.38-.12" fill="var(--color-flower-outline)"/>
    <path d="M46.2 5.48l-2.84 4.43c-.13.21.2.42.34.2l2.84-4.42c.13-.21-.2-.42-.34-.2" fill="var(--color-flower-outline)"/>
    <path d="M40.64 4.12l-3.84 6.6c-.12.21.21.42.34.2l3.84-6.59c.13-.22-.21-.43-.34-.2" fill="var(--color-flower-outline)"/>
</svg>