<?xml version="1.0" standalone="no"?>
<!DOCTYPE svg PUBLIC "-//W3C//DTD SVG 20010904//EN"
 "http://www.w3.org/TR/2001/REC-SVG-20010904/DTD/svg10.dtd">
<svg version="1.0" xmlns="http://www.w3.org/2000/svg"
 width="700.000000pt" height="700.000000pt" viewBox="0 0 700.000000 700.000000"
 preserveAspectRatio="xMidYMid meet">
<metadata>
Created by potrace 1.11, written by Peter Selinger 2001-2013
</metadata>
<g transform="translate(0.000000,700.000000) scale(0.100000,-0.100000)"
fill="#000000" stroke="none">
<path d="M5145 6926 c-178 -34 -374 -150 -520 -308 -401 -432 -734 -1099 -995
-1991 l-59 -202 5 235 c7 251 -6 509 -32 687 -70 474 -278 839 -554 972 -69
33 -82 36 -165 36 -115 -1 -176 -26 -241 -98 -83 -92 -134 -224 -198 -512 -76
-342 -115 -657 -125 -1014 l-6 -233 -62 95 c-144 220 -373 505 -547 681 -123
124 -245 208 -364 249 -76 26 -96 29 -177 25 -80 -3 -100 -8 -170 -41 -142
-68 -256 -208 -300 -372 -26 -92 -30 -272 -11 -385 33 -188 134 -427 259 -613
38 -57 59 -96 49 -92 -35 13 -179 17 -237 6 -142 -26 -281 -128 -336 -244 -74
-160 -30 -366 114 -522 109 -120 256 -199 617 -332 l55 -20 -3 -66 c-9 -157
60 -374 173 -551 91 -142 238 -301 407 -439 l88 -71 -56 -30 c-121 -65 -217
-180 -249 -301 -61 -225 82 -458 370 -600 126 -62 235 -95 527 -160 139 -31
278 -63 308 -72 81 -22 259 -93 266 -105 4 -6 23 -128 43 -272 l36 -261 271
-3 271 -2 -18 117 c-10 65 -33 220 -52 346 l-34 227 62 93 c35 50 81 113 103
138 44 50 604 430 947 644 247 154 595 353 865 495 420 220 546 288 630 340
426 261 671 597 687 945 3 66 1 132 -6 166 -29 141 -133 278 -244 322 -170 68
-360 63 -632 -18 -18 -5 -20 -1 -23 57 -8 200 -104 353 -268 430 -59 27 -78
31 -153 31 -205 0 -368 -108 -566 -375 -43 -59 -80 -106 -81 -105 -2 1 1 20 6
42 69 309 131 871 115 1040 -6 61 -27 143 -49 196 -6 13 33 44 183 143 385
256 575 444 687 679 100 212 101 472 2 675 -39 81 -159 207 -233 245 -114 57
-255 77 -380 53z m135 -195 c0 -39 -229 -507 -340 -695 -50 -84 -52 -90 -34
-103 15 -11 21 -11 31 0 42 42 266 473 357 687 27 65 51 106 61 108 9 2 41 -9
72 -24 45 -21 52 -29 39 -36 -9 -5 -16 -15 -16 -22 0 -8 -11 -53 -25 -101 -73
-250 -188 -489 -331 -689 -43 -58 -47 -86 -14 -86 17 0 85 90 159 210 98 159
236 498 257 628 l7 43 27 -26 c92 -89 132 -274 95 -447 -34 -163 -103 -277
-264 -439 -101 -101 -281 -248 -304 -249 -4 0 -3 9 3 21 9 15 8 24 -1 35 -17
20 -23 18 -75 -21 -76 -58 -93 -64 -56 -19 66 79 29 104 -55 37 -74 -59 -93
-72 -75 -53 37 42 -5 62 -53 26 -19 -15 -35 -23 -35 -17 0 5 5 13 10 16 13 8
13 42 -1 50 -6 4 -36 -16 -67 -44 -51 -46 -172 -120 -172 -105 0 3 21 32 46
65 45 59 51 89 18 89 -8 0 -24 10 -35 23 -19 22 -19 22 -35 2 -8 -11 -42 -62
-75 -114 -33 -51 -62 -91 -65 -88 -3 3 0 16 7 29 7 12 14 34 15 48 2 14 6 37
10 52 7 33 -17 48 -42 27 -13 -11 -14 -9 -9 14 10 38 -7 54 -56 53 -40 -1 -40
-1 -68 -67 -31 -74 -91 -182 -97 -176 -12 12 158 360 266 547 204 350 405 599
580 717 53 36 130 76 130 68 0 -11 -83 -201 -122 -280 -22 -44 -67 -126 -100
-182 -59 -101 -64 -123 -29 -123 33 0 195 296 276 500 20 52 44 101 53 108 18
14 132 17 132 3z m-2357 -586 c97 -46 211 -182 292 -350 139 -284 186 -630
165 -1206 -17 -454 -46 -811 -101 -1224 -29 -217 -29 -218 -45 -204 -24 20
-39 -5 -53 -88 -7 -43 -17 -88 -22 -101 -5 -13 -10 -53 -11 -90 -1 -61 -2 -63
-7 -22 -4 33 -11 46 -25 48 -25 5 -36 -14 -36 -63 0 -23 -5 -46 -11 -52 -7 -7
-14 -67 -17 -142 -2 -72 -8 -131 -11 -131 -4 0 -13 39 -19 88 -7 48 -16 104
-19 125 -5 33 -3 37 16 37 12 0 24 6 26 13 3 7 2 89 -3 182 -5 119 -3 237 7
395 19 309 21 1481 2 1830 -15 298 -19 325 -46 325 -19 0 -20 -7 -18 -95 1
-52 6 -187 12 -299 16 -305 25 -951 16 -1156 l-9 -180 -22 489 c-13 276 -27
493 -33 499 -5 5 -17 7 -25 4 -21 -8 -22 33 19 -869 29 -631 33 -796 25 -898
-5 -69 -10 -140 -10 -158 0 -72 -24 -20 -62 133 -41 165 -50 187 -73 179 -16
-6 -17 -2 -49 151 -142 691 -149 1417 -20 2112 22 123 23 138 9 152 -24 24
-35 3 -56 -105 -59 -306 -88 -590 -96 -929 -8 -366 17 -714 77 -1060 17 -96
19 -124 9 -142 -10 -18 -3 -56 45 -240 31 -120 60 -227 63 -238 3 -11 -31 52
-75 140 -81 161 -107 235 -156 450 -84 365 -116 643 -123 1045 -6 340 8 557
53 850 24 155 91 493 115 583 28 105 91 204 144 228 30 13 115 5 158 -16z
m-1641 -820 c77 -39 170 -118 279 -236 241 -264 424 -507 591 -788 60 -100 66
-115 52 -128 -8 -8 -13 -23 -10 -32 17 -64 16 -70 -6 -73 -16 -2 -24 -12 -28
-32 -3 -16 -9 -31 -15 -32 -5 -2 -75 85 -155 192 -140 187 -169 216 -178 172
-2 -10 64 -108 158 -234 89 -119 164 -222 167 -229 2 -7 -1 -16 -6 -20 -6 -3
-9 -11 -6 -16 4 -5 -1 -12 -9 -15 -9 -3 -16 -16 -16 -28 -1 -17 -17 -4 -79 61
-98 102 -185 218 -264 351 -58 99 -81 120 -94 86 -8 -21 16 -69 91 -184 57
-86 103 -146 227 -295 22 -27 -2 -6 -54 47 -52 54 -136 152 -186 218 -62 81
-98 120 -112 120 -35 0 -21 -35 52 -131 99 -130 167 -207 288 -328 68 -67 93
-98 73 -87 -62 32 -90 9 -52 -44 17 -24 28 -30 45 -26 12 3 30 -1 41 -9 18
-14 17 -15 -9 -9 -20 5 -32 2 -41 -11 -12 -17 -18 -15 -87 30 -127 82 -231
169 -347 290 -76 79 -117 115 -127 111 -31 -12 -12 -45 84 -147 105 -112 189
-185 311 -269 91 -63 64 -58 -96 20 -390 189 -697 501 -871 885 -56 124 -84
238 -90 366 -5 107 2 217 13 206 3 -2 18 -54 35 -116 40 -150 107 -321 183
-466 87 -166 152 -265 176 -265 36 0 31 21 -20 101 -128 199 -234 441 -295
670 -45 172 -45 185 4 240 l39 44 27 -90 c68 -223 216 -540 344 -737 75 -116
81 -122 106 -104 18 13 16 18 -36 97 -104 157 -196 328 -265 496 -44 106 -124
341 -124 364 0 19 62 46 115 51 52 5 123 -10 177 -37z m3367 -223 c46 -23 67
-55 86 -127 21 -82 19 -169 -10 -438 -73 -683 -226 -1215 -517 -1797 -174
-348 -367 -649 -596 -929 -101 -123 -172 -204 -172 -195 0 10 34 70 71 127 42
63 47 84 24 94 -20 7 -73 -45 -109 -109 -15 -25 -33 -49 -41 -52 -8 -3 -15 -4
-15 -3 0 1 14 56 30 122 25 105 27 122 15 135 -20 20 -34 4 -62 -68 -27 -73
-40 -50 -24 43 13 71 10 85 -19 85 -14 0 -21 -12 -29 -52 -38 -195 -40 -168
-6 93 65 503 157 983 285 1484 168 661 294 985 479 1232 65 86 169 198 177
190 7 -6 -37 -257 -82 -467 -139 -652 -343 -1257 -642 -1902 -35 -76 -39 -89
-27 -105 12 -16 15 -16 28 -3 16 17 139 282 217 470 247 592 433 1231 540
1855 17 99 32 189 35 200 5 25 106 88 182 114 72 25 138 26 182 3z m867 -967
c146 -43 218 -236 166 -442 -82 -324 -331 -643 -747 -955 -140 -105 -325 -230
-325 -219 0 5 23 23 50 41 53 34 57 39 38 58 -9 9 7 31 68 94 198 208 385 487
495 739 89 205 166 453 148 476 -22 26 -38 13 -54 -44 -106 -381 -259 -688
-493 -983 -79 -100 -303 -328 -362 -370 -39 -27 -38 -25 43 74 32 39 57 78 57
87 0 33 -29 28 -81 -13 -58 -45 -57 -43 14 51 65 85 117 167 117 182 0 7 58
71 128 143 186 190 303 334 441 539 52 78 60 109 29 115 -11 2 -38 -30 -89
-105 -122 -183 -250 -340 -418 -514 -68 -69 -82 -79 -98 -71 -25 14 -31 9 -92
-75 -29 -40 -55 -73 -57 -73 -2 0 3 17 12 38 32 76 97 240 125 316 24 66 65
130 251 390 123 171 253 342 290 381 75 79 154 131 219 144 64 13 70 13 125
-4z m-3239 -77 c-3 -8 -6 -5 -6 6 -1 11 2 17 5 13 3 -3 4 -12 1 -19z m-1352
-203 c87 -21 307 -135 469 -243 78 -51 198 -122 269 -158 142 -72 550 -310
555 -323 2 -5 -9 -11 -24 -14 -18 -3 -57 10 -128 44 -146 69 -227 90 -378 96
-192 8 -322 -26 -415 -111 -22 -20 -44 -36 -49 -36 -5 0 -76 25 -159 56 -286
105 -421 187 -496 298 -21 32 -39 63 -39 68 0 6 28 -16 63 -48 119 -111 285
-205 456 -258 76 -24 85 -25 101 -11 9 8 24 15 32 15 20 0 30 26 15 38 -7 6
-48 29 -92 52 -96 50 -197 111 -193 115 2 2 49 -12 105 -31 104 -34 133 -35
133 -4 0 14 -25 26 -112 54 -130 42 -260 105 -365 178 -40 28 -73 52 -73 53 0
1 100 -35 223 -82 356 -136 373 -142 386 -133 7 4 11 16 9 26 -2 13 -77 46
-313 135 -171 65 -318 118 -327 118 -9 1 -18 -7 -20 -16 -2 -13 -6 -14 -11 -6
-9 15 46 79 87 100 84 44 187 54 291 28z m1375 -205 c0 -13 -1 -13 -10 0 -5 8
-10 22 -10 30 0 13 1 13 10 0 5 -8 10 -22 10 -30z m4106 26 c97 -26 145 -70
179 -165 19 -54 20 -186 1 -261 -47 -193 -179 -384 -374 -541 -133 -108 -266
-187 -622 -372 -190 -98 -365 -190 -390 -204 -61 -35 -53 -28 82 70 367 268
689 594 959 973 81 114 91 137 63 148 -19 7 -29 -4 -136 -156 -229 -322 -538
-637 -873 -888 -186 -140 -358 -250 -381 -244 -12 3 -52 -18 -114 -62 -52 -36
-135 -86 -185 -110 -75 -37 -90 -42 -98 -29 -13 25 -36 18 -108 -35 -38 -28
-69 -48 -69 -45 0 3 12 27 27 53 l27 48 -24 32 c-13 18 -28 32 -33 32 -6 0
-29 -16 -53 -35 -23 -19 -45 -35 -47 -35 -3 0 -1 16 4 35 15 54 -6 72 -43 38
-32 -28 -19 0 35 76 51 74 55 77 322 249 616 397 876 619 1099 939 68 97 157
266 181 345 13 39 25 59 41 67 31 14 197 62 201 58 1 -2 -10 -39 -26 -83 -163
-445 -443 -850 -799 -1156 -51 -44 -91 -86 -89 -92 15 -44 104 21 299 220 288
292 511 650 643 1029 16 44 32 85 37 92 18 23 189 29 264 9z m-5686 -173 c84
-64 176 -126 270 -181 41 -24 64 -40 50 -37 -53 15 -233 106 -304 155 -102 71
-216 181 -216 210 0 19 8 15 68 -37 37 -33 96 -82 132 -110z m1710 -253 c0
-13 -11 -13 -30 0 -12 8 -11 10 8 10 12 0 22 -4 22 -10z m-585 -208 c94 -30
169 -67 258 -125 288 -190 482 -462 663 -932 41 -105 42 -110 23 -117 -18 -7
-19 -14 -15 -55 l6 -48 -38 78 c-47 95 -53 101 -76 84 -18 -13 -18 -15 2 -60
12 -26 19 -47 17 -47 -1 0 -29 34 -61 76 -43 55 -63 74 -76 71 -13 -4 -32 15
-75 76 -161 231 -361 477 -540 666 -66 70 -93 93 -106 88 -32 -12 -17 -40 74
-135 179 -187 397 -457 537 -664 50 -75 51 -76 22 -65 -37 14 -47 4 -33 -34
l12 -30 -47 37 c-281 227 -600 547 -772 777 -36 47 -55 61 -71 51 -22 -14 -2
-50 98 -170 160 -192 389 -426 563 -574 142 -121 161 -141 146 -156 -11 -11
-23 -10 -67 2 -30 8 -94 17 -144 21 -89 6 -91 6 -160 57 -334 242 -535 484
-626 751 -18 52 -24 92 -24 155 0 75 3 91 27 132 52 88 142 120 313 114 71 -3
132 -12 170 -24z m685 -138 c0 -17 -8 -17 -39 0 -23 13 -23 13 8 14 21 0 31
-4 31 -14z m539 -941 c0 -10 -6 -54 -13 -98 l-12 -80 -28 80 c-15 44 -30 85
-32 92 -4 7 9 13 33 16 21 2 41 4 46 5 4 1 7 -6 6 -15z m178 -215 c-3 -7 -5
-2 -5 12 0 14 2 19 5 13 2 -7 2 -19 0 -25z m567 -45 c-38 -57 -180 -304 -275
-477 -108 -197 -100 -193 -119 -54 l-11 78 52 76 c86 124 337 400 368 404 2 0
-5 -12 -15 -27z m-1549 -59 c189 -51 368 -193 509 -406 21 -31 36 -65 34 -75
-4 -15 -7 -14 -18 9 -15 31 -31 40 -51 28 -11 -7 -11 -15 -3 -39 9 -21 9 -32
1 -40 -8 -8 -23 0 -53 30 -45 44 -74 47 -74 9 0 -11 -3 -20 -6 -20 -3 0 -123
80 -267 177 -144 97 -270 177 -282 177 -13 1 -20 -5 -20 -18 0 -13 76 -69 261
-195 221 -149 258 -178 247 -190 -12 -11 -12 -17 0 -35 13 -20 12 -21 -17 -23
-42 -2 -137 23 -219 58 -103 44 -204 113 -296 206 -82 81 -111 96 -111 55 0
-26 118 -145 201 -205 86 -61 234 -131 324 -153 82 -20 81 -19 66 -38 -10 -12
-8 -19 13 -37 14 -13 26 -26 26 -30 0 -10 -198 34 -350 76 -298 84 -481 223
-497 377 -8 78 10 129 66 190 53 58 122 98 211 123 67 18 215 13 305 -11z
m1054 -631 l23 -158 -47 -100 -47 -100 -34 100 c-19 54 -34 102 -34 105 0 3
18 5 39 5 44 1 73 21 91 64 9 23 6 43 -20 124 -30 95 -32 117 -6 117 9 0 20
-49 35 -157z m31 -471 c22 2 40 1 40 -2 0 -3 16 -106 34 -230 19 -124 34 -226
33 -226 -1 -1 -67 1 -146 4 l-144 7 -4 30 c-2 17 -12 93 -23 169 -11 77 -19
141 -16 143 2 2 15 -2 30 -8 20 -10 35 -10 66 0 49 14 75 56 64 104 -6 28 -5
30 10 18 9 -8 32 -12 56 -9z"/>
<path d="M4898 6503 c-32 -36 -468 -798 -466 -813 2 -8 12 -15 22 -15 15 0 75
96 253 400 128 220 232 409 231 419 -4 26 -21 30 -40 9z"/>
<path d="M5533 6293 c-20 -32 -97 -152 -172 -268 -74 -115 -135 -219 -135
-230 -1 -14 5 -20 19 -20 15 0 62 65 192 265 94 146 172 275 172 288 1 16 -5
22 -19 22 -14 0 -32 -19 -57 -57z"/>
<path d="M1013 5284 c-9 -24 446 -699 472 -699 14 0 20 6 19 20 0 28 -452 695
-470 695 -8 0 -17 -7 -21 -16z"/>
<path d="M4472 5007 c-6 -7 -18 -73 -27 -147 -85 -712 -277 -1462 -546 -2130
-43 -108 -74 -199 -70 -203 5 -5 17 -7 27 -5 40 7 281 669 398 1088 62 225
132 531 175 775 40 222 83 545 79 592 -3 39 -18 52 -36 30z"/>
<path d="M4580 4198 c-125 -486 -311 -985 -547 -1470 -68 -139 -113 -243 -110
-252 17 -43 40 -11 135 182 161 326 288 629 402 957 68 198 182 595 176 612
-3 7 -14 13 -25 13 -15 0 -23 -10 -31 -42z"/>
</g>
</svg>
