<?xml version="1.0" standalone="no"?>
<!DOCTYPE svg PUBLIC "-//W3C//DTD SVG 20010904//EN"
 "http://www.w3.org/TR/2001/REC-SVG-20010904/DTD/svg10.dtd">
<svg version="1.0" xmlns="http://www.w3.org/2000/svg"
 width="16.000000pt" height="16.000000pt" viewBox="0 0 16.000000 16.000000"
 preserveAspectRatio="xMidYMid meet">
<metadata>
Created by potrace 1.11, written by Peter Selinger 2001-2013
</metadata>
<g transform="translate(0.000000,16.000000) scale(0.002286,-0.002286)"
fill="#000000" stroke="none">
<path d="M684 5575 l0 -735 342 0 342 0 1 373 c0 204 0 381 1 393 0 20 3 20
395 20 l395 -1 0 343 0 342 -738 0 -738 0 0 -735z"/>
<path d="M2844 5971 c0 -299 2 -340 15 -343 14 -3 1202 -2 1271 1 l25 1 1 340
0 340 -656 0 -656 0 0 -339z"/>
<path d="M4840 5968 l0 -343 395 1 c217 0 395 -2 396 -5 0 -4 0 -180 1 -393
l0 -388 342 0 342 0 0 735 0 735 -738 0 -738 0 0 -342z"/>
<path d="M5634 3500 l1 -655 340 0 340 0 0 655 0 655 -341 0 -341 1 1 -656z"/>
<path d="M692 4135 c-4 -5 -7 -301 -8 -657 l0 -648 342 0 342 0 0 655 c1 499
-2 655 -11 656 -74 7 -660 2 -665 -6z"/>
<path d="M5632 1818 c-1 -189 -1 -369 -1 -400 l-1 -58 -342 1 c-189 0 -367 0
-395 -1 l-53 0 0 -340 c0 -187 3 -340 8 -341 4 0 333 -1 730 -2 474 -1 726 1
730 8 4 6 7 340 7 743 l1 732 -342 0 -342 0 0 -342z"/>
<path d="M689 2146 c-1 -1 -2 -331 -3 -733 -1 -646 1 -733 14 -734 69 -4 299
-1 308 5 7 4 12 4 12 -1 0 -4 207 -8 460 -8 253 0 460 3 460 7 0 4 7 5 16 1
13 -5 150 -8 191 -4 8 1 12 89 12 341 l1 340 -55 0 c-140 1 -316 1 -322 -1 -5
-1 -11 -1 -16 0 -11 2 -291 2 -302 1 -24 -4 -87 -1 -93 4 -3 3 -5 118 -5 256
0 165 -3 247 -10 243 -6 -4 -7 -1 -1 8 14 21 15 151 2 143 -7 -5 -8 -2 -2 7 5
8 9 39 10 70 l1 56 -339 0 c-186 0 -339 0 -339 -1z"/>
<path d="M2935 1360 l-90 -5 0 -339 0 -340 648 0 c357 -1 652 1 656 4 4 3 7
157 7 343 -1 331 -1 337 -21 337 -267 4 -1134 4 -1200 0z"/>
</g>
</svg>
