<svg xmlns="http://www.w3.org/2000/svg" width="700" height="640.8">
  <path d="M551.8 142.5c-42.8 0-77.5 34.6-77.5 77.4 0 42.8 34.7 77.4 77.5 77.4 2.3 0 4.5-.1 6.7-.3-8.2 4.9-13.8 13.9-13.8 24.2 0 .3 0 .6.1.9-18.3-31.7-52.4-52.9-91.6-52.9-39.7 0-74.3 21.9-92.3 54.3-4.2-22.9-24.3-40.3-48.4-40.3-27.2 0-49.3 22.1-49.3 49.3 0 27.2 22.1 49.3 49.3 49.3 13.9 0 26.5-5.8 35.5-15.1-.2 2.6-.3 5.3-.3 8.1 0 41.8 24.3 77.9 59.5 95-9-2.3-18.4-3.5-28.1-3.6-45 0-83.8 26.4-101.9 64.5.1-.4.1-.7.1-1.1 0-42.8-34.7-77.4-77.4-77.4-10 0-19.6 1.9-28.4 5.4 12.9-8.9 21.3-23.8 21.3-40.6 0-27.2-22-49.3-49.2-49.3-27.2 0-49.3 22.1-49.3 49.3 0 15.3 7.1 29.1 18.1 38.1-3.1-1-6.3-1.5-9.6-1.5-17.2 0-31 13.8-31 30.9 0 17.1 13.8 31 31 31 9.6 0 18.3-4.4 24-11.4-2.8 8-4.4 16.6-4.4 25.5 0 8.5 1.4 16.6 3.9 24.2-3.1-2-6.9-3.1-10.9-3.1-11.6 0-21 9.3-21.1 20.9-7.6-17.3-24.9-29.4-45.1-29.4C22 542.2 0 564.3 0 591.5c0 27.2 22 49.3 49.2 49.3 27.3 0 49.3-22.1 49.3-49.3 0-2.7-.2-5.3-.6-7.9 3.8 5.6 10.2 9.3 17.5 9.3 10.9 0 20-8.3 21-18.9 14 19.9 37.2 33 63.5 33 28.7 0 53.7-15.6 67.1-38.8-.4 3.5-.5 7.1-.5 10.6 0 22.4 6.5 43.2 17.7 60.7h23.2c-13.8-16.4-22.2-37.5-22.2-60.7 0-51.8 42-93.8 93.9-93.8 51.8 0 93.8 42 93.8 93.8 0 23.2-8.4 44.3-22.2 60.7H474c11.2-17.5 17.7-38.3 17.7-60.7 0-1.3-.1-2.6-.1-3.9 4.4 23.4 13.2 45.2 25.6 64.5H555c-22.5-26.6-36.1-61-36.1-98.6 0-84.2 68.3-152.5 152.5-152.5 9.6 0 19 1 28.2 2.7v-31c-9.2-1.4-18.6-2.1-28.2-2.1-43.7 0-83.9 15.3-115.4 40.9 1.8-7.7 2.8-15.8 2.8-24 0-11.6-1.9-22.7-5.3-33.1 5 4.8 11.9 7.7 19.4 7.7 15.5 0 28.1-12.6 28.1-28.2 0-14.3-10.7-26.1-24.6-27.9 30.7-10.2 52.8-39.2 52.8-73.4 0-42.8-34.7-77.4-77.4-77.4zm0 12.9c35.6 0 64.5 28.9 64.5 64.5s-28.9 64.5-64.5 64.5-64.6-28.9-64.6-64.5 29-64.5 64.6-64.5zm-98.6 131.4c48.6 0 88 39.4 88 88 0 48.5-39.4 87.9-88 87.9-48.5 0-87.9-39.4-87.9-87.9 0-48.6 39.4-88 87.9-88zm-140.7 4.7c22.7 0 41 18.4 41 41 0 22.7-18.3 41.1-41 41.1s-41.1-18.4-41.1-41.1c0-22.6 18.4-41 41.1-41zm138.7 2.1c-43.9 1.1-79.2 37-79.2 81.2 0 44.8 36.4 81.2 81.2 81.2 44.9 0 81.2-36.4 81.2-81.2 0-44.9-36.3-81.2-81.2-81.2-.7 0-1.3-.1-2 0zm121.7 13.6c7.7 0 14.1 6.3 14.1 14 0 7.8-6.4 14.1-14.1 14.1-7.8 0-14.1-6.3-14.1-14.1 0-7.7 6.3-14 14.1-14zM453.2 326c27 0 48.7 21.8 48.7 48.8 0 26.9-21.7 48.7-48.7 48.7-26.9 0-48.7-21.8-48.7-48.7 0-27 21.8-48.8 48.7-48.8zm0 8.2c-22.4 0-40.6 18.1-40.6 40.6 0 22.4 18.2 40.5 40.6 40.5 22.5 0 40.6-18.1 40.6-40.5 0-22.5-18.1-40.6-40.6-40.6zm0 8c18 0 32.5 14.6 32.5 32.6 0 17.9-14.5 32.4-32.5 32.4-17.9 0-32.4-14.5-32.4-32.4 0-18 14.5-32.6 32.4-32.6zm0 8.2c-13.4 0-24.3 10.9-24.3 24.4 0 13.4 10.9 24.3 24.3 24.3 13.5 0 24.4-10.9 24.4-24.3 0-13.5-10.9-24.4-24.4-24.4zm-309.6 37c16.3 0 29.5 13.2 29.5 29.6 0 16.3-13.2 29.5-29.5 29.5-16.4 0-29.6-13.2-29.6-29.5 0-16.4 13.2-29.6 29.6-29.6zm527.8 12.7c-77.7 0-140.7 63-140.7 140.7 0 38.4 15.3 73.2 40.2 98.6h128.7v-18.9c-8.8 3.1-18.3 4.8-28.2 4.8-46.6 0-84.4-37.8-84.4-84.5 0-46.6 37.8-84.4 84.4-84.4 9.9 0 19.4 1.7 28.2 4.8v-58.3c-9.1-1.8-18.6-2.8-28.2-2.8zm-547.1 62.2c5.9 2.6 12.4 3.9 19.3 3.9 5.4 0 10.7-.9 15.6-2.5-10.6 6.6-19.6 15.7-26 26.5.3-1.8.5-3.7.5-5.7 0-8.7-3.6-16.5-9.4-22.2zm75.6 2.8c35.6 0 64.5 28.9 64.5 64.5s-28.9 64.5-64.5 64.5c-35.7 0-64.5-28.9-64.5-64.5s28.8-64.5 64.5-64.5zm-97.1.9c10.2 0 18.5 8.3 18.5 18.5 0 10.3-8.3 18.6-18.5 18.6-10.3 0-18.6-8.3-18.6-18.6 0-10.2 8.3-18.5 18.6-18.5zm401 1.5c-9.9 22.4-15.4 47.3-15.4 73.3 0 4.4.2 8.7.5 13-7.7-33.9-30.7-62-61.4-76.6 8.2 2 16.9 3.1 25.7 3.1 18.3 0 35.5-4.6 50.6-12.8zm167.6 3c-38.9 0-70.4 31.5-70.4 70.3 0 38.9 31.5 70.4 70.4 70.4 10 0 19.5-2.1 28.2-5.9v-15.7c-8.3 4.8-17.9 7.6-28.2 7.6-31.1 0-56.3-25.3-56.3-56.4 0-31.1 25.2-56.3 56.3-56.3 10.3 0 19.9 2.8 28.2 7.6v-15.8c-8.7-3.7-18.2-5.8-28.2-5.8zm-292.3 21.7c-47.9 0-86.7 38.8-86.7 86.6 0 23.7 9.5 45 24.8 60.7h123.7c15.4-15.7 24.8-37 24.8-60.7 0-47.8-38.8-86.6-86.6-86.6zm292.3 6.4c-23.3 0-42.2 18.9-42.2 42.2 0 23.4 18.9 42.3 42.2 42.3 10.8 0 20.7-4.1 28.2-10.8v-62.9c-7.5-6.7-17.4-10.8-28.2-10.8zm-292.3 28.3c28.7 0 51.9 23.2 51.9 51.9s-23.2 52-51.9 52-52-23.3-52-52 23.3-51.9 52-51.9zm0 8.6c-24 0-43.3 19.4-43.3 43.3 0 24 19.3 43.4 43.3 43.4 23.9 0 43.3-19.4 43.3-43.4 0-23.9-19.4-43.3-43.3-43.3zm0 8.7c19.1 0 34.6 15.5 34.6 34.6 0 19.2-15.5 34.7-34.6 34.7-19.2 0-34.7-15.5-34.7-34.7 0-19.1 15.5-34.6 34.7-34.6zm0 8.6c-14.4 0-26 11.7-26 26 0 14.4 11.6 26 26 26 14.3 0 26-11.6 26-26 0-14.3-11.7-26-26-26zm-263.7 8.4c5.8 0 10.6 4.8 10.6 10.6s-4.8 10.6-10.6 10.6-10.5-4.8-10.5-10.6 4.7-10.6 10.5-10.6zm-66.2.8c16.4 0 29.6 13.2 29.6 29.5s-13.2 29.6-29.6 29.6c-16.3 0-29.5-13.3-29.5-29.6S32.9 562 49.2 562zM530.674563 8.71875c19.375 0 35.25 15.75 35.25 35.25 0 19.375-15.75 35.25-35.25 35.25-19.375 0-35.25-15.75-35.25-35.25 0-19.375 15.75-35.25 35.25-35.25m0 56.25c11.625 0 21.125-9.5 21.125-21.125s-9.5-21.125-21.125-21.125-21.125 9.5-21.125 21.125 9.5 21.125 21.125 21.125z" opacity="0.08" fill="#fff"/>
  <path d="M523.674563 43.96875c0 3.875 3.125 7 7 7s7-3.125 7-7-3.125-7-7-7-7 3.125-7 7z" opacity="0.08" fill="#fff"/>
  <path d="M488.424563 43.96875c0 23.375 18.875 42.25 42.25 42.25s42.25-18.875 42.25-42.25-18.875-42.25-42.25-42.25-42.25 18.875-42.25 42.25z" opacity="0.08" fill="none" stroke="#fff" stroke-width="3.5188940125"/>
  <path d="M306.299563 391.59375c22.625 0 41 18.375 41 41s-18.375 41-41 41-41-18.375-41-41 18.375-41 41-41m0 65.625c13.625 0 24.625-11 24.625-24.625s-11-24.625-24.625-24.625-24.625 11-24.625 24.625 11 24.625 24.625 24.625z" opacity="0.08" fill="#fff"/>
  <path d="M298.049563 432.59375c0 4.5 3.625 8.25 8.25 8.25 4.5 0 8.25-3.625 8.25-8.25 0-4.5-3.625-8.25-8.25-8.25-4.5 0-8.25 3.625-8.25 8.25z" opacity="0.08" fill="#fff"/>
  <path d="M257.049563 432.59375c0 27.25 22 49.25 49.25 49.25s49.25-22 49.25-49.25-22-49.25-49.25-49.25-49.25 22-49.25 49.25z" opacity="0.08" fill="none" stroke="#fff" stroke-width="4.1054427625"/>
  <path d="M551.799563 161.84375c32.125 0 58.125 26 58.125 58 0 32.125-26 58-58.125 58s-58-26-58-58c0-32.125 26-58 58-58m0 109.625c28.5 0 51.625-23.125 51.625-51.625s-23.125-51.625-51.625-51.625-51.625 23.125-51.625 51.625 23.125 51.625 51.625 51.625z" opacity="0.08" fill="#fff"/>
  <path d="M551.799563 174.71875c25 0 45.125 20.25 45.125 45.125 0 25-20.25 45.125-45.125 45.125-25 0-45.125-20.25-45.125-45.125 0-25 20.25-45.125 45.125-45.125m0 85.25c22.125 0 40.125-18 40.125-40.125s-18-40.125-40.125-40.125-40.125 18-40.125 40.125 18 40.125 40.125 40.125z" opacity="0.08" fill="#fff"/>
  <path d="M551.799563 187.71875c17.875 0 32.25 14.5 32.25 32.25 0 17.875-14.5 32.25-32.25 32.25-17.875 0-32.25-14.5-32.25-32.25 0-17.875 14.5-32.25 32.25-32.25m0 45.125c7.125 0 12.875-5.75 12.875-12.875s-5.75-12.875-12.875-12.875-12.875 5.75-12.875 12.875 5.75 12.875 12.875 12.875z" opacity="0.08" fill="#fff"/>
  <path d="M545.299563 219.96875c0 3.5 2.875 6.5 6.5 6.5s6.5-2.875 6.5-6.5-2.875-6.5-6.5-6.5-6.5 2.875-6.5 6.5zM312.424563 295.59375c20.375 0 37 16.5 37 37 0 20.375-16.5 37-37 37-20.375 0-37-16.5-37-37 0-20.375 16.5-37 37-37m0 69.75c18.125 0 32.875-14.75 32.875-32.875s-14.75-32.875-32.875-32.875-32.875 14.75-32.875 32.875 14.75 32.875 32.875 32.875z" opacity="0.08" fill="#fff"/>
  <path d="M312.424563 303.84375c15.875 0 28.75 12.875 28.75 28.75s-12.875 28.75-28.75 28.75-28.75-12.875-28.75-28.75 12.875-28.75 28.75-28.75m0 54.25c14.125 0 25.5-11.375 25.5-25.5s-11.375-25.5-25.5-25.5-25.5 11.375-25.5 25.5 11.375 25.5 25.5 25.5z" opacity="0.08" fill="#fff"/>
  <path d="M312.424563 311.96875c11.375 0 20.5 9.25 20.5 20.5 0 11.375-9.25 20.5-20.5 20.5-11.375 0-20.5-9.25-20.5-20.5 0-11.375 9.25-20.5 20.5-20.5m0 28.75c4.5 0 8.25-3.625 8.25-8.25 0-4.5-3.625-8.25-8.25-8.25-4.5 0-8.25 3.625-8.25 8.25 0 4.5 3.625 8.25 8.25 8.25z" opacity="0.08" fill="#fff"/>
  <path d="M308.424563 332.46875c0 2.25 1.875 4.125 4.125 4.125s4.125-1.875 4.125-4.125-1.875-4.125-4.125-4.125-4.125 1.875-4.125 4.125zM199.924563 471.46875c32.125 0 58 26 58 58 0 32.125-26 58.125-58 58.125-32.125 0-58.125-26-58.125-58.125s26-58 58.125-58m0 109.625c28.5 0 51.625-23.125 51.625-51.625s-23.125-51.625-51.625-51.625-51.625 23.125-51.625 51.625 23.125 51.625 51.625 51.625z" opacity="0.08" fill="#fff"/>
  <path d="M199.924563 484.46875c25 0 45.125 20.25 45.125 45.125 0 25-20.25 45.125-45.125 45.125-25 0-45.125-20.25-45.125-45.125 0-25 20.25-45.125 45.125-45.125m0 85.25c22.125 0 40.125-18 40.125-40.125s-18-40.125-40.125-40.125-40.125 18-40.125 40.125 18 40.125 40.125 40.125z" opacity="0.08" fill="#fff"/>
  <path d="M199.924563 497.34375c17.875 0 32.25 14.5 32.25 32.25 0 17.875-14.5 32.25-32.25 32.25-17.875 0-32.25-14.5-32.25-32.25 0-17.875 14.5-32.25 32.25-32.25m0 45.125c7.125 0 12.875-5.75 12.875-12.875s-5.75-12.875-12.875-12.875-12.875 5.75-12.875 12.875 5.75 12.875 12.875 12.875z" opacity="0.08" fill="#fff"/>
  <path d="M193.424563 529.59375c0 3.625 2.875 6.5 6.5 6.5 3.5 0 6.5-2.875 6.5-6.5s-2.875-6.5-6.5-6.5-6.5 2.875-6.5 6.5zM305.424563 226.96875c15.5 0 28.125 12.625 28.125 28.125s-12.625 28.125-28.125 28.125-28.125-12.625-28.125-28.125 12.625-28.125 28.125-28.125m0 42.25c7.75 0 14.125-6.25 14.125-14.125 0-7.75-6.25-14.125-14.125-14.125-7.75 0-14.125 6.25-14.125 14.125 0 7.75 6.25 14.125 14.125 14.125zM221.049563 395.84375c15.5 0 28.125 12.625 28.125 28.125s-12.625 28.125-28.125 28.125-28.125-12.625-28.125-28.125 12.625-28.125 28.125-28.125m0 42.25c7.75 0 14.125-6.25 14.125-14.125 0-7.75-6.25-14.125-14.125-14.125-7.75 0-14.125 6.25-14.125 14.125 0 7.75 6.25 14.125 14.125 14.125zM143.549563 393.96875c12.75 0 23 10.25 23 23s-10.25 23-23 23-23-10.25-23-23 10.25-23 23-23m0 32.875c5.5 0 9.875-4.375 9.875-9.875s-4.375-9.875-9.875-9.875-9.875 4.375-9.875 9.875 4.375 9.875 9.875 9.875z" opacity="0.08" fill="#fff"/>
  <path d="M140.299563 416.96875c0 1.875 1.5 3.25 3.25 3.25 1.875 0 3.25-1.5 3.25-3.25 0-1.875-1.5-3.25-3.25-3.25-1.875 0-3.25 1.5-3.25 3.25zM49.299563 568.46875c12.75 0 23 10.25 23 23s-10.25 23-23 23-23-10.25-23-23 10.25-23 23-23m0 32.875c5.5 0 9.875-4.375 9.875-9.875s-4.375-9.875-9.875-9.875-9.875 4.375-9.875 9.875 4.375 9.875 9.875 9.875z" opacity="0.08" fill="#fff"/>
  <path d="M45.924563 591.46875c0 1.875 1.5 3.25 3.25 3.25 1.875 0 3.25-1.5 3.25-3.25 0-1.875-1.5-3.25-3.25-3.25-1.875 0-3.25 1.5-3.25 3.25zM102.799563 470.09375c8 0 14.5 6.5 14.5 14.5s-6.5 14.5-14.5 14.5-14.5-6.5-14.5-14.5 6.5-14.5 14.5-14.5m0 20.625c3.375 0 6.25-2.75 6.25-6.25 0-3.375-2.75-6.25-6.25-6.25-3.375 0-6.25 2.75-6.25 6.25 0 3.375 2.75 6.25 6.25 6.25z" opacity="0.08" fill="#fff"/>
  <path d="M100.674563 484.59375c0 1.125.875 2.125 2.125 2.125 1.125 0 2.125-.875 2.125-2.125 0-1.125-.875-2.125-2.125-2.125-1.125 0-2.125.875-2.125 2.125zM650.674563 260.34375c27.25 0 49.25 22 49.25 49.25s-22 49.25-49.25 49.25-49.25-22-49.25-49.25 22-49.25 49.25-49.25m0 78.875c16.375 0 29.5-13.25 29.5-29.5 0-16.375-13.25-29.5-29.5-29.5-16.375 0-29.5 13.25-29.5 29.5 0 16.375 13.25 29.5 29.5 29.5z" opacity="0.08" fill="#fff"/>
  <path d="M650.674563 286.59375c12.75 0 23 10.25 23 23s-10.25 23-23 23-23-10.25-23-23 10.25-23 23-23m0 32.875c5.5 0 9.875-4.375 9.875-9.875s-4.375-9.875-9.875-9.875-9.875 4.375-9.875 9.875 4.375 9.875 9.875 9.875z" opacity="0.08" fill="#fff"/>
  <path d="M647.424563 309.59375c0 1.875 1.5 3.25 3.25 3.25 1.875 0 3.25-1.5 3.25-3.25 0-1.875-1.5-3.25-3.25-3.25-1.875 0-3.25 1.5-3.25 3.25zM115.424563 242.46875c14 0 25.375 11.375 25.375 25.375s-11.375 25.375-25.375 25.375-25.375-11.375-25.375-25.375 11.375-25.375 25.375-25.375m0 40.5c8.375 0 15.25-6.75 15.25-15.25 0-8.375-6.75-15.25-15.25-15.25-8.375 0-15.25 6.75-15.25 15.25 0 8.375 6.75 15.25 15.25 15.25z" opacity="0.08" fill="#fff"/>
  <path d="M115.424563 255.96875c6.5 0 11.875 5.25 11.875 11.875 0 6.5-5.25 11.875-11.875 11.875-6.5 0-11.875-5.25-11.875-11.875 0-6.5 5.25-11.875 11.875-11.875m0 16.875c2.75 0 5.125-2.25 5.125-5.125 0-2.75-2.25-5.125-5.125-5.125-2.75 0-5.125 2.25-5.125 5.125 0 2.75 2.25 5.125 5.125 5.125z" opacity="0.08" fill="#fff"/>
  <path d="M113.674563 267.71875c0 .875.75 1.75 1.75 1.75.875 0 1.75-.75 1.75-1.75 0-.875-.75-1.75-1.75-1.75-.875 0-1.75.75-1.75 1.75zM623.549563 65.09375c27.25 0 49.25 22 49.25 49.25s-22 49.25-49.25 49.25-49.25-22-49.25-49.25 22-49.25 49.25-49.25m0 78.875c16.375 0 29.5-13.25 29.5-29.5 0-16.375-13.25-29.5-29.5-29.5-16.375 0-29.5 13.25-29.5 29.5 0 16.375 13.25 29.5 29.5 29.5z" opacity="0.08" fill="#fff"/>
  <path d="M623.549563 91.34375c12.75 0 23 10.25 23 23s-10.25 23-23 23-23-10.25-23-23 10.25-23 23-23m0 32.875c5.5 0 9.875-4.375 9.875-9.875s-4.375-9.875-9.875-9.875-9.875 4.375-9.875 9.875 4.375 9.875 9.875 9.875z" opacity="0.08" fill="#fff"/>
  <path d="M620.299563 114.34375c0 1.875 1.5 3.25 3.25 3.25 1.875 0 3.25-1.5 3.25-3.25 0-1.875-1.5-3.25-3.25-3.25-1.875 0-3.25 1.5-3.25 3.25zM203.674563 83.46875c10.25 0 18.5 8.25 18.5 18.5s-8.25 18.5-18.5 18.5-18.5-8.25-18.5-18.5 8.25-18.5 18.5-18.5m0 27.625c5.125 0 9.25-4.125 9.25-9.25s-4.125-9.25-9.25-9.25-9.25 4.125-9.25 9.25 4.125 9.25 9.25 9.25z" opacity="0.08" fill="#fff"/>
  <path d="M221.924563 168.46875c0 7.5 6.125 13.625 13.625 13.625s13.625-6.125 13.625-13.625-6.125-13.625-13.625-13.625-13.625 6.125-13.625 13.625zM336.299563 219.84375c0 5.875 4.75 10.625 10.625 10.625s10.625-4.75 10.625-10.625-4.75-10.625-10.625-10.625-10.625 4.75-10.625 10.625zM109.549563 16.34375c0 7 5.625 12.625 12.625 12.625s12.625-5.625 12.625-12.625-5.625-12.625-12.625-12.625-12.625 5.625-12.625 12.625z" opacity="0.08" fill="#fff" stroke="#fff" stroke-width="1.9386832374999998"/>
  <path d="M212.299563 255.71875c0 11.75 9.5 21.375 21.375 21.375 11.75 0 21.375-9.5 21.375-21.375 0-11.75-9.5-21.375-21.375-21.375-11.75 0-21.375 9.5-21.375 21.375z" opacity="0.08" fill="#fff" stroke="#fff" stroke-width="5.816049574999999"/>
</svg>