<svg xmlns="http://www.w3.org/2000/svg" x="0px" y="0px" viewBox="0 0 512 512">
  <path fill="#fff" d="M166.96 311.252c0 .681-.779 1.231-1.739 1.231-.961 0-1.739-.551-1.739-1.231 0-.683.778-1.234 1.739-1.234.96-.018 1.779.582 1.779 1.234zm2.401 2.848c-1.123 0-2.034.647-2.034 1.442 0 .8.9 1.4 2 1.443 1.122 0 2.032-.646 2.032-1.443.035-.842-.859-1.442-1.959-1.475zm9.84 9.468c-1.387 0-2.512.799-2.512 1.8 0 1 1.1 1.8 2.5 1.78 1.386 0 2.511-.796 2.511-1.78.012-.968-1.1-1.768-2.5-1.8zM156.761 304c-.737 0-1.335.424-1.335.947 0 .5.6.9 1.3.945s1.335-.424 1.335-.945c.035-.547-.561-.947-1.261-.943zm4.2 2.658c-.819 0-1.484.472-1.484 1.1 0 .6.7 1.1 1.5 1.051.817 0 1.482-.471 1.482-1.051-.016-.658-.659-1.058-1.459-1.1zm12.96 12.139c-1.248 0-2.26.719-2.26 1.604 0 .9 1 1.6 2.3 1.604s2.261-.717 2.261-1.604c-.04-.901-1.022-1.601-2.322-1.604zM462 256c0 113.771-92.229 206-206 206S50 369.8 50 256 142.229 50 256 50s206 92.2 206 206zm-106.098 10.854c.604-1.361 1.202-2.729 1.719-4.166 16.121-1.293 32.729-1.166 49.4.457l.265-2.75c-16.484-1.6-32.881-1.742-48.808-.526 2.56-8.17 3.909-17.398 3.812-27.893-.21-22.294-7.644-39.658-19.326-54.068 2.243-13.573.553-27.146-3.681-40.724-16.694 1.367-31.719 6.834-45.097 16.333-25.002-5.072-50.001-5.395-75.004 0-15.604-10.532-30.928-15.697-46.015-16.333-4.472 14.951-5.161 29.688-1.38 44.177-13.162 13.966-18.192 30.92-17.945 49.7.141 10.7 1.8 20.3 4.9 28.765-15.694-1.151-31.825-.997-48.049.575l.266 2.8c16.521-1.604 32.947-1.736 48.902-.488.586 1.4 1.2 2.8 1.8 4.188-17.287-.456-32.845 1.046-47.415 4.629l.657 2.7c14.788-3.634 30.63-5.098 48.317-4.502 11.697 20.8 34.2 33 67 36.867-7.618 6.188-11.714 13.486-12.769 21.7h-17.367c-23.324 0-29.683-29.739-53.841-26.806 23.437 11.6 18.8 48.8 56.3 48.8h15.8v34.054c.167 5.503-2.229 9.183-6.098 11.733 13.431 1.4 23.524-5.35 23.524-13.574v-45.014l4.199-4.32v52.555c.178 5.23-2.364 8.203-5.062 11 11.833.5 22.963-1.892 23.467-11.962v-50.299c0-2.528 4.145-2.591 4.1 0v47.9c.122 8.5 7.5 15.4 23 14.322-4.159-3.348-5.436-6.731-5.436-11.628v-51.971s4.285-.219 4.3 4.3v43.834c0 9.8 11.7 13.8 25.1 13.402-4.379-3.28-7.343-7.192-7.361-12.424v-52.715c-.452-7.748-3.603-15.053-9.779-21.858 29.975-4.603 51.579-16.567 62.337-38.013 17.745-.609 33.6.9 48.5 4.5l.658-2.68c-14.754-3.531-30.392-5.031-47.892-4.577zM213.73 331.139c-1.54 0-2.79.889-2.79 2s1.25 2 2.8 1.979c1.541 0 2.79-.887 2.79-1.979s-1.259-2.039-2.83-2zm-9.209-.139c-1.541 0-2.789.888-2.789 1.981 0 1.1 1.2 2 2.8 1.979 1.54 0 2.79-.887 2.79-1.979-.011-1.181-1.222-1.981-2.822-2.021zm-9.331-.341c-1.54 0-2.79.888-2.79 1.981 0 1.1 1.2 2 2.8 2 1.542 0 2.79-.887 2.79-1.979-.01-1.161-1.29-1.961-2.79-2.002zm-8.848-2.61c-1.542 0-2.791.888-2.791 2 0 1.1 1.2 2 2.8 1.98 1.54 0 2.789-.887 2.789-1.98-.009-1.149-1.24-2.049-2.84-2z"/>
</svg>