<svg xmlns="http://www.w3.org/2000/svg" x="0px" y="0px" viewBox="0 0 512 512">
  <path d="M256 50C142.2 50 50 142.2 50 256s92.2 206 206 206 206-92.2 206-206S369.8 50 256 50zm-8.6 90.1c17.3-.3 34.9 5.7 48.4 18.4 1.2 1.1 2.4 2.2 5 4.7.5-7.2.8-12.6 1.1-18.4h26.8c.3 1.6.7 2.9.7 4.2-.1 54 .2 108-.4 162-.2 17.3-1.8 34.9-12.3 49.8-11.3 16-27.3 24.5-46.3 27.5-21.4 3.4-42.5 2.7-62.3-7.2-19.2-9.5-28.9-27.2-26.1-47.9 8.2 1.2 16.4 2.3 24.6 3.8 1.5.3 3.8 1.8 4.1 3.2 4.8 20.5 20.8 23.6 38 24.6 24.3 1.4 41.9-9.1 46.9-29.3 2.8-11.4 2.7-23.5 3.8-34.9-11.6 6-21.5 13.3-32.6 16.4-31.4 8.8-62.4-4.2-78-32.9-20.3-37.4-19.3-75.6 2.2-111.9 12.3-20.7 34.1-31.6 56.4-32.1zm5.3 25.8c-.6 0-1.2 0-1.9.1-19.2.9-32 11.7-38.5 28.8-4.1 10.8-5.1 22.7-6.9 31.2 1.4 11.9 1.7 20.6 3.4 29.1 4.3 21.3 19.7 36.4 38.1 38.5 20.3 2.3 38.5-6.5 46.4-24.4 11-25.3 11.4-51.5.3-76.6-7.6-17.2-21.5-27-40.9-26.7z" fill="#fff"/>
</svg>