<svg xmlns="http://www.w3.org/2000/svg" viewBox="0, 0, 511, 512">
  <path d="M304.064 158.184c-12.668-.583-16.479-.686-48.564-.686s-35.878.12-48.547.686c-32.6 1.494-47.775 16.927-49.269 49.269-.566 12.669-.704 16.462-.704 48.547 0 32.085.138 35.878.704 48.564 1.494 32.257 16.601 47.775 49.269 49.269 12.652.566 16.462.704 48.547.704 32.102 0 35.896-.12 48.564-.704 32.6-1.476 47.758-16.961 49.269-49.269.566-12.668.687-16.479.687-48.564s-.121-35.878-.687-48.547c-1.511-32.325-16.703-47.775-49.269-49.269zM255.5 317.714c-34.076 0-61.714-27.621-61.714-61.714 0-34.076 27.638-61.697 61.714-61.697 34.076 0 61.714 27.621 61.714 61.697 0 34.076-27.638 61.714-61.714 61.714zm64.152-111.429c-7.966 0-14.42-6.454-14.42-14.42 0-7.965 6.454-14.42 14.42-14.42 7.965 0 14.42 6.455 14.42 14.42 0 7.949-6.455 14.42-14.42 14.42zM295.55 256c0 22.128-17.939 40.05-40.05 40.05-22.111 0-40.05-17.922-40.05-40.05 0-22.128 17.939-40.05 40.05-40.05 22.111 0 40.05 17.922 40.05 40.05zM255.5 50c-113.763 0-206 92.237-206 206s92.237 206 206 206 206-92.237 206-206-92.237-206-206-206zm119.446 255.543c-1.975 43.689-26.3 67.894-69.886 69.903-12.823.583-16.926.721-49.56.721s-36.719-.138-49.543-.721c-43.672-2.009-67.894-26.248-69.903-69.903-.583-12.806-.721-16.909-.721-49.543s.138-36.719.721-49.543c2.009-43.672 26.248-67.894 69.903-69.885 12.824-.601 16.909-.739 49.543-.739s36.737.138 49.56.739c43.689 2.008 67.929 26.299 69.886 69.885.583 12.824.721 16.909.721 49.543s-.138 36.737-.721 49.543z" fill="#FFF"/>
</svg>