<svg xmlns="http://www.w3.org/2000/svg" x="0px" y="0px" viewBox="0 0 512 512">
  <path fill="#fff" d="M256 50C142.229 50 50 142.2 50 256s92.229 206 206 206 206-92.2 206-206S369.771 50 256 50zm103.599 170.506c3.021 67.2-47.1 142.1-135.8 142.12401-26.981 0-52.1-7.9-73.2-21.466 25.347 3 50.6-4 70.7-19.78601-20.907-.4-38.6-14.2-44.6-33.181 7.48601 1.4 14.9 1 21.6-.81601-22.976-4.6-38.8-25.3-38.3-47.45299 6.44 3.6 13.8 5.7 21.6 5.97699-21.278-14.2-27.3-42.3-14.8-63.78899 23.563 28.9 58.8 47.9 98.5 49.92-6.96899-29.9 15.7-58.7 46.5-58.66701 13.742 0 26.2 5.8 34.9 15.088 10.884-2.1 21.1-6.1 30.3-11.59399-3.56699 11.2-11.1 20.5-21 26.433 9.66501-1.2 18.9-3.7 27.4-7.52299-6.405 9.6-14.5 18-23.8 24.733z"/>
</svg>